<svg width="16" height="16" viewBox="0 0 16 16" fill="none" xmlns="http://www.w3.org/2000/svg">
<g clip-path="url(#clip0_1176_46)">
<path d="M8.00012 2.7481L7.28312 2.0111C5.60012 0.281099 2.51412 0.878099 1.40012 3.0531C0.918123 3.9951 0.780123 5.3231 1.50812 7.0001H0.430123C-1.69788 1.3031 4.59512 -1.8299 7.82412 1.1431C7.88412 1.19843 7.94279 1.25543 8.00012 1.3141C8.05645 1.25506 8.11517 1.19835 8.17612 1.1441C11.4061 -1.8299 17.6981 1.3031 15.5701 7.0001H14.4921C15.2201 5.3231 15.0821 3.9951 14.6001 3.0531C13.4861 0.878099 10.4001 0.280099 8.71712 2.0101L8.00012 2.7481ZM2.21212 10.0001H3.52712C4.59312 11.1831 6.05012 12.4581 8.00012 13.7951C9.94912 12.4581 11.4071 11.1831 12.4731 10.0001H13.7881C12.5231 11.5661 10.6481 13.2501 8.00012 15.0001C5.35212 13.2501 3.47712 11.5661 2.21212 10.0001Z" fill="#FF8030"/>
<path d="M10.464 3.31403C10.4252 3.21721 10.3571 3.13495 10.2692 3.07876C10.1814 3.02258 10.0781 2.99527 9.97398 3.00067C9.86982 3.00607 9.76996 3.04391 9.68838 3.10888C9.60679 3.17386 9.54757 3.26272 9.519 3.36303L7.921 8.95603L6.464 5.31403C6.43007 5.22954 6.37371 5.15592 6.30101 5.10112C6.22831 5.04631 6.14202 5.0124 6.05146 5.00303C5.96089 4.99367 5.86949 5.00921 5.78711 5.04798C5.70473 5.08675 5.6345 5.14727 5.584 5.22303L3.732 8.00003H0.5C0.367392 8.00003 0.240215 8.05271 0.146447 8.14647C0.0526784 8.24024 0 8.36742 0 8.50003C0 8.63264 0.0526784 8.75981 0.146447 8.85358C0.240215 8.94735 0.367392 9.00003 0.5 9.00003H4C4.08234 8.99999 4.1634 8.97961 4.23597 8.9407C4.30854 8.9018 4.37038 8.84558 4.416 8.77703L5.889 6.56803L7.536 10.686C7.57479 10.7828 7.64289 10.8651 7.73076 10.9213C7.81862 10.9775 7.92186 11.0048 8.02602 10.9994C8.13018 10.994 8.23004 10.9561 8.31162 10.8912C8.39321 10.8262 8.45243 10.7373 8.481 10.637L10.079 5.04403L11.536 8.68603C11.5731 8.77871 11.6372 8.85816 11.7199 8.91412C11.8026 8.97008 11.9001 9 12 9.00003H15.5C15.6326 9.00003 15.7598 8.94735 15.8536 8.85358C15.9473 8.75981 16 8.63264 16 8.50003C16 8.36742 15.9473 8.24024 15.8536 8.14647C15.7598 8.05271 15.6326 8.00003 15.5 8.00003H12.338L10.464 3.31403Z" fill="#FF8030"/>
</g>
<defs>
<clipPath id="clip0_1176_46">
<rect width="16" height="16" fill="white"/>
</clipPath>
</defs>
</svg>
