<svg width="16" height="16" viewBox="0 0 16 16" fill="none" xmlns="http://www.w3.org/2000/svg">
<path d="M1.4751 8.99995C2.7021 10.8399 4.7791 12.8709 8.0001 14.9999C11.2211 12.8709 13.2981 10.8399 14.5251 8.99995H12.0001C11.9002 8.99992 11.8027 8.97 11.72 8.91404C11.6373 8.85807 11.5732 8.77863 11.5361 8.68595L10.0791 5.04395L8.4811 10.6369C8.45253 10.7373 8.3933 10.8261 8.31172 10.8911C8.23013 10.9561 8.13027 10.9939 8.02612 10.9993C7.92196 11.0047 7.81872 10.9774 7.73085 10.9212C7.64299 10.865 7.57489 10.7828 7.5361 10.6859L5.8891 6.56795L4.4161 8.77795C4.37037 8.84631 4.30848 8.90234 4.23591 8.94106C4.16335 8.97979 4.08235 9.00001 4.0001 8.99995H1.4751Z" fill="#FF8030"/>
<path d="M0.879789 8.0003C-2.42721 1.6803 4.40979 -1.9997 7.82279 1.1433C7.88279 1.19864 7.94146 1.25564 7.99879 1.3143C8.05512 1.25527 8.11384 1.19855 8.17479 1.1443C11.5898 -1.9997 18.4258 1.6803 15.1198 8.0003H12.3368L10.4628 3.3143C10.424 3.21749 10.3559 3.13523 10.268 3.07904C10.1802 3.02285 10.0769 2.99555 9.97277 3.00095C9.86861 3.00635 9.76875 3.04418 9.68717 3.10916C9.60558 3.17413 9.54636 3.263 9.51779 3.3633L7.92079 8.9563L6.46379 5.3143C6.42986 5.22982 6.3735 5.1562 6.3008 5.10139C6.22809 5.04659 6.14181 5.01267 6.05124 5.00331C5.96068 4.99394 5.86928 5.00948 5.7869 5.04825C5.70452 5.08702 5.63429 5.14755 5.58379 5.2233L3.73179 8.0003H0.879789Z" fill="#FF8030"/>
</svg>
