<svg width="16" height="16" viewBox="0 0 16 16" fill="none" xmlns="http://www.w3.org/2000/svg">
<g clip-path="url(#clip0_1176_41)">
<path d="M8.5 5.03418V6.13418L9.453 5.58418L9.953 6.45118L9 7.00018L9.953 7.55018L9.453 8.41618L8.5 7.86618V8.96618H7.5V7.86618L6.547 8.41618L6.047 7.55018L7 7.00018L6.047 6.45018L6.547 5.58418L7.5 6.13418V5.03418H8.5ZM13.25 9.00018C13.1837 9.00018 13.1201 9.02652 13.0732 9.0734C13.0263 9.12029 13 9.18388 13 9.25018V9.75018C13 9.88818 13.112 10.0002 13.25 10.0002H13.75C13.8163 10.0002 13.8799 9.97384 13.9268 9.92696C13.9737 9.88007 14 9.81648 14 9.75018V9.25018C14 9.18388 13.9737 9.12029 13.9268 9.0734C13.8799 9.02652 13.8163 9.00018 13.75 9.00018H13.25ZM13 11.2502C13 11.1839 13.0263 11.1203 13.0732 11.0734C13.1201 11.0265 13.1837 11.0002 13.25 11.0002H13.75C13.8163 11.0002 13.8799 11.0265 13.9268 11.0734C13.9737 11.1203 14 11.1839 14 11.2502V11.7502C14 11.8165 13.9737 11.8801 13.9268 11.927C13.8799 11.9738 13.8163 12.0002 13.75 12.0002H13.25C13.1837 12.0002 13.1201 11.9738 13.0732 11.927C13.0263 11.8801 13 11.8165 13 11.7502V11.2502ZM13.25 13.0002C13.1837 13.0002 13.1201 13.0265 13.0732 13.0734C13.0263 13.1203 13 13.1839 13 13.2502V13.7502C13 13.8882 13.112 14.0002 13.25 14.0002H13.75C13.8163 14.0002 13.8799 13.9738 13.9268 13.927C13.9737 13.8801 14 13.8165 14 13.7502V13.2502C14 13.1839 13.9737 13.1203 13.9268 13.0734C13.8799 13.0265 13.8163 13.0002 13.75 13.0002H13.25ZM2.25 9.00018C2.1837 9.00018 2.12011 9.02652 2.07322 9.0734C2.02634 9.12029 2 9.18388 2 9.25018V9.75018C2 9.88818 2.112 10.0002 2.25 10.0002H2.75C2.8163 10.0002 2.87989 9.97384 2.92678 9.92696C2.97366 9.88007 3 9.81648 3 9.75018V9.25018C3 9.18388 2.97366 9.12029 2.92678 9.0734C2.87989 9.02652 2.8163 9.00018 2.75 9.00018H2.25ZM2.25 11.0002C2.1837 11.0002 2.12011 11.0265 2.07322 11.0734C2.02634 11.1203 2 11.1839 2 11.2502V11.7502C2 11.8882 2.112 12.0002 2.25 12.0002H2.75C2.8163 12.0002 2.87989 11.9738 2.92678 11.927C2.97366 11.8801 3 11.8165 3 11.7502V11.2502C3 11.1839 2.97366 11.1203 2.92678 11.0734C2.87989 11.0265 2.8163 11.0002 2.75 11.0002H2.25ZM2 13.2502C2 13.1839 2.02634 13.1203 2.07322 13.0734C2.12011 13.0265 2.1837 13.0002 2.25 13.0002H2.75C2.8163 13.0002 2.87989 13.0265 2.92678 13.0734C2.97366 13.1203 3 13.1839 3 13.2502V13.7502C3 13.8165 2.97366 13.8801 2.92678 13.927C2.87989 13.9738 2.8163 14.0002 2.75 14.0002H2.25C2.1837 14.0002 2.12011 13.9738 2.07322 13.927C2.02634 13.8801 2 13.8165 2 13.7502V13.2502Z" fill="#FF8030"/>
<path d="M5 1C5 0.734784 5.10536 0.48043 5.29289 0.292893C5.48043 0.105357 5.73478 0 6 0L10 0C10.2652 0 10.5196 0.105357 10.7071 0.292893C10.8946 0.48043 11 0.734784 11 1V2C11.2652 2 11.5196 2.10536 11.7071 2.29289C11.8946 2.48043 12 2.73478 12 3V7H15C15.2652 7 15.5196 7.10536 15.7071 7.29289C15.8946 7.48043 16 7.73478 16 8V15C16 15.2652 15.8946 15.5196 15.7071 15.7071C15.5196 15.8946 15.2652 16 15 16H1C0.734784 16 0.48043 15.8946 0.292893 15.7071C0.105357 15.5196 0 15.2652 0 15V8C0 7.73478 0.105357 7.48043 0.292893 7.29289C0.48043 7.10536 0.734784 7 1 7H4V3C4 2.73478 4.10536 2.48043 4.29289 2.29289C4.48043 2.10536 4.73478 2 5 2V1ZM7 15H9V12H7V15ZM10 15H11V3H5V15H6V12C6 11.7348 6.10536 11.4804 6.29289 11.2929C6.48043 11.1054 6.73478 11 7 11H9C9.26522 11 9.51957 11.1054 9.70711 11.2929C9.89464 11.4804 10 11.7348 10 12V15ZM10 1H6V2H10V1ZM12 8V15H15V8H12ZM4 15V8H1V15H4Z" fill="#FF8030"/>
</g>
<defs>
<clipPath id="clip0_1176_41">
<rect width="16" height="16" fill="white"/>
</clipPath>
</defs>
</svg>
