<svg width="16" height="16" viewBox="0 0 16 16" fill="none" xmlns="http://www.w3.org/2000/svg">
<path d="M5.33801 1.59C4.38555 1.85232 3.4396 2.13774 2.50101 2.446C2.41523 2.47366 2.33898 2.52491 2.28098 2.59388C2.22297 2.66285 2.18555 2.74676 2.17301 2.836C1.61901 6.993 2.89901 10.026 4.42601 12.024C5.07224 12.8786 5.84317 13.6314 6.71301 14.257C7.05901 14.501 7.36501 14.677 7.60601 14.79C7.72601 14.8467 7.82367 14.886 7.89901 14.908C7.93222 14.9181 7.96593 14.9264 8.00001 14.933C8.03375 14.9264 8.06712 14.918 8.10001 14.908C8.17601 14.8853 8.27401 14.846 8.39401 14.79C8.63401 14.677 8.94101 14.5 9.28701 14.257C10.1568 13.6314 10.9278 12.8786 11.574 12.024C13.101 10.027 14.381 6.993 13.827 2.836C13.8145 2.74676 13.777 2.66285 13.719 2.59388C13.661 2.52491 13.5848 2.47366 13.499 2.446C12.848 2.233 11.749 1.886 10.662 1.591C9.55201 1.29 8.53101 1.067 8.00001 1.067C7.47001 1.067 6.44801 1.289 5.33801 1.59ZM5.07201 0.56C6.15701 0.265 7.31001 0 8.00001 0C8.69001 0 9.84301 0.265 10.928 0.56C12.038 0.86 13.157 1.215 13.815 1.43C14.0901 1.52085 14.334 1.68747 14.5187 1.9107C14.7034 2.13394 14.8213 2.40474 14.859 2.692C15.455 7.169 14.072 10.487 12.394 12.682C11.6822 13.6207 10.8338 14.4476 9.87701 15.135C9.54653 15.3734 9.19587 15.5826 8.82901 15.76C8.54901 15.892 8.24801 16 8.00001 16C7.75201 16 7.45201 15.892 7.17101 15.76C6.80415 15.5826 6.45348 15.3734 6.12301 15.135C5.16626 14.4476 4.31785 13.6207 3.60601 12.682C1.92801 10.487 0.545005 7.169 1.14101 2.692C1.17869 2.40474 1.29665 2.13394 1.48132 1.9107C1.666 1.68747 1.9099 1.52085 2.18501 1.43C3.14026 1.11701 4.10287 0.826926 5.07201 0.56Z" fill="#FF8030"/>
<path d="M8 4.5C8.13261 4.5 8.25979 4.55268 8.35355 4.64645C8.44732 4.74021 8.5 4.86739 8.5 5V6.5H10C10.1326 6.5 10.2598 6.55268 10.3536 6.64645C10.4473 6.74021 10.5 6.86739 10.5 7C10.5 7.13261 10.4473 7.25979 10.3536 7.35355C10.2598 7.44732 10.1326 7.5 10 7.5H8.5V9C8.5 9.13261 8.44732 9.25979 8.35355 9.35355C8.25979 9.44732 8.13261 9.5 8 9.5C7.86739 9.5 7.74021 9.44732 7.64645 9.35355C7.55268 9.25979 7.5 9.13261 7.5 9V7.5H6C5.86739 7.5 5.74021 7.44732 5.64645 7.35355C5.55268 7.25979 5.5 7.13261 5.5 7C5.5 6.86739 5.55268 6.74021 5.64645 6.64645C5.74021 6.55268 5.86739 6.5 6 6.5H7.5V5C7.5 4.86739 7.55268 4.74021 7.64645 4.64645C7.74021 4.55268 7.86739 4.5 8 4.5Z" fill="#FF8030"/>
</svg>
